<svg xmlns="http://www.w3.org/2000/svg" viewBox="0 0 140 140"><path d="M0 0h140v140H0z" style="fill:none"/><path d="m45.09 130-.12-.07c-8.38-4.93-14.8-9.75-21.59-14.85-6.81-5.11-13.85-10.4-23.07-15.83L0 99.07l16.52-60.52L60.67 10l67.59 27.96 11.73 47.6-.12.18c-4.51 6.58-8.95 13.67-13.66 21.17-4.72 7.52-9.59 15.29-14.54 22.51l-.13.19h-.23c-11.45.51-22.77.36-33.72.21-10.62-.14-21.6-.29-32.38.18h-.13ZM1.08 98.62c9.11 5.38 16.09 10.63 22.84 15.7 6.74 5.06 13.11 9.85 21.39 14.73 10.76-.46 21.71-.32 32.29-.17 10.86.15 22.09.3 33.44-.19 4.89-7.15 9.72-14.84 14.39-22.29 4.67-7.45 9.09-14.48 13.56-21.03l-11.52-46.71-66.7-27.6-43.46 28.1L1.08 98.62Z" style="fill:#fff"/></svg>