<svg xmlns="http://www.w3.org/2000/svg" viewBox="0 0 140 140"><path d="M0 0h140v140H0z" style="fill:none"/><path d="m107.7 130-78.33-.06L0 66.88 65.38 10l.26.12c11.62 5.4 22.53 11.52 34.09 17.99 6.91 3.87 14.06 7.88 21.34 11.7l.15.08.07.16c4.63 11.02 8.04 22.45 11.65 34.56 2.18 7.31 4.43 14.87 6.97 22.3l.1.29-32.3 32.81Zm-77.76-1.01 77.4.06 31.62-32.12c-2.51-7.35-4.73-14.82-6.89-22.05-3.58-12.02-6.97-23.38-11.55-34.3-7.24-3.8-14.34-7.78-21.21-11.63-11.46-6.42-22.28-12.49-33.77-17.84L1.13 67.13l28.81 61.85Z" style="fill:#fff"/></svg>