<?xml version="1.0" encoding="UTF-8"?> <svg xmlns="http://www.w3.org/2000/svg" xmlns:xlink="http://www.w3.org/1999/xlink" id="Layer_1" viewBox="0 0 550 500"><defs><style>.cls-1{fill:url(#Degradado_sin_nombre_5-2);}.cls-1,.cls-2,.cls-3{opacity:.4;}.cls-2{fill:url(#Degradado_sin_nombre_5);}.cls-3{fill:url(#Degradado_sin_nombre_5-3);}</style><linearGradient id="Degradado_sin_nombre_5" x1="-9036.74" y1="-11674.04" x2="-9036.74" y2="-11928.72" gradientTransform="translate(-6532.25 -12964.76) rotate(-169.81)" gradientUnits="userSpaceOnUse"><stop offset="0" stop-color="#80b04a"></stop><stop offset="1" stop-color="#2f6b81"></stop></linearGradient><linearGradient id="Degradado_sin_nombre_5-2" x1="-9278" y1="-11637.44" x2="-9278" y2="-11979.84" gradientTransform="translate(-6240.24 -12912.28) rotate(-169.81) scale(.94 1)" xlink:href="#Degradado_sin_nombre_5"></linearGradient><linearGradient id="Degradado_sin_nombre_5-3" x1="-9386.85" y1="-11088.66" x2="-9386.85" y2="-11504.95" gradientTransform="translate(-5979.46 -13544.13) rotate(-169.81) scale(.92 1.11)" xlink:href="#Degradado_sin_nombre_5"></linearGradient></defs><path class="cls-2" d="M106.06,233.61c16.97,40.76,35.31,60.2,54.62,100.1,4.8,9.92,15.13,17.63,25.07,28.76,62.63-23.62,168.98-22.08,229.26-45.64,20.58-8.05,36.39-21.72,33.57-45.44-3.71-31.15-8.68-62.2-13.12-93.37-53.62-25.56-148.65-40.92-198.87-63.73-10.93-4.96-24.42-4.81-35.53-6.8-61.45,16.52-76.23,51.36-97.03,92.57-4.52,8.95-2.2,23.37,2.04,33.55Zm100.93-111.67c29.95,12.8,185.1,54.85,212.75,69.03,4.1,30.04,8.33,60.95,13,95.17-61.78,38.16-178.61,29.53-247.47,58.92-23.81-51.68-46.5-80.04-68.89-128.63,12.74-39.62,39.21-69.93,90.61-94.5Z"></path><path class="cls-1" d="M60.11,237.84c20.99,54.47,43.99,80.31,67.95,133.59,5.96,13.24,18.96,23.45,31.42,38.25,79.8-32.55,214.73-31.92,291.54-64.36,26.23-11.08,46.48-29.65,43.21-61.44-4.28-41.75-10.17-83.35-15.39-125.12-67.69-33.58-188.07-52.9-251.49-82.83-13.8-6.51-30.92-6.13-45-8.64-78.19,23-97.43,69.95-124.39,125.54-5.85,12.07-3.11,31.39,2.13,45ZM186.33,79.93c39.34,17.44,243.45,73.92,279.73,93.32,4.99,41.86,10.13,84.94,15.81,132.62-82.05,54.12-236.08,43.73-327.35,85.71-30.69-71.78-60.23-111.03-89.08-178.51,17.37-55.47,52.73-98.13,120.89-133.13Z"></path><path class="cls-3" d="M20.66,252.25c23.38,72.35,49.96,106.31,76.9,176.99,6.7,17.57,21.85,30.87,36.23,50.34,95.66-45.85,255.83-48.81,347.93-94.42,31.45-15.58,56.01-41.02,53.04-83.5-3.91-55.79-9.73-111.34-14.73-167.12-79.41-43.05-221.78-65.54-296.23-103.83-16.2-8.33-36.54-7.33-53.17-10.3C77.14,53.42,52.98,116.84,19.4,192.05c-7.29,16.33-4.58,42.13,1.26,60.2ZM174.96,37.22c46.21,22.24,286.94,92.12,329.46,117.08,4.74,55.92,9.63,113.46,15.03,177.16-98.93,74.8-281.5,65.23-391.05,124.02-34.41-95.27-68.37-147-100.71-236.55C49.88,144.16,93.06,86.02,174.96,37.22Z"></path></svg> 